  <svg
            width="20"
            height="20"
            viewBox="0 0 20 20"
            fill="none"
            xmlns="http://www.w3.org/2000/svg"
          >
            <path
              d="M9.1 13.6001L5.5 10M5.5 10L9.1 6.4M5.5 10L14.5 10M1 8.2L1 11.8C1 14.3203 1 15.5804 1.4905 16.543C1.92187 17.3897 2.61028 18.0781 3.457 18.5095C4.41964 19 5.67973 19 8.2 19L11.8 19C14.3202 19 15.5804 19 16.543 18.5095C17.3897 18.0781 18.0781 17.3897 18.5095 16.543C19 15.5804 19 14.3203 19 11.8L19 8.2C19 5.67977 19 4.41965 18.5095 3.45704C18.0781 2.61032 17.3897 1.9219 16.543 1.49047C15.5804 1 14.3202 1 11.8 1L8.2 1C5.67973 0.999999 4.41964 0.999999 3.457 1.49047C2.61028 1.9219 1.92187 2.61032 1.4905 3.45704C1 4.41965 1 5.67977 1 8.2Z"
              stroke="white"
              stroke-width="1.5"
              stroke-linecap="round"
              stroke-linejoin="round"
            />
          </svg>