<svg width="28" height="28" viewBox="0 0 28 28" fill="current" stroke="current" xmlns="http://www.w3.org/2000/svg">
<path fill-rule="evenodd" clip-rule="evenodd" d="M14 0H13.9505C11.5581 0 9.69581 -3.88123e-08 8.20726 0.135442C6.69656 0.272186 5.47498 0.554791 4.39535 1.1773C3.05926 1.94909 1.94985 3.05895 1.1786 4.39535C0.553488 5.47628 0.272186 6.69656 0.135442 8.20726C-3.88123e-08 9.69581 0 11.5581 0 13.9505V14.0495C0 16.4419 -3.88123e-08 18.3042 0.135442 19.7927C0.272186 21.3034 0.554791 22.525 1.1773 23.6047C1.94909 24.9407 3.05895 26.0502 4.39535 26.8214C5.47628 27.4465 6.69656 27.7278 8.20726 27.8659C9.69581 28 11.5581 28 13.9505 28H18.2326V24.3509C18.2326 23.1801 18.2326 22.2047 18.3367 21.4311C18.4461 20.6132 18.6884 19.8748 19.2809 19.2822C19.8748 18.6884 20.6132 18.4461 21.4298 18.3367C22.2047 18.2326 23.1814 18.2326 24.3509 18.2326H28V13.9505C28 11.5581 28 9.69581 27.8646 8.20726C27.7278 6.69656 27.4452 5.47498 26.8227 4.39535C26.0509 3.05926 24.9411 1.94985 23.6047 1.1786C22.5237 0.553488 21.3034 0.272186 19.7927 0.135442C18.3042 -3.88123e-08 16.4419 0 14.0495 0H14ZM24.4473 25.7535C23.2463 26.8306 21.7721 27.5564 20.186 27.8515V24.4186C20.186 23.1632 20.1887 22.3193 20.2733 21.6902C20.354 21.0899 20.4934 20.832 20.664 20.6627C20.8333 20.4934 21.0899 20.354 21.6902 20.272C22.3193 20.1887 23.1632 20.186 24.4186 20.186H27.8515C27.5564 21.7721 26.8306 23.2463 25.7535 24.4473C25.5933 24.6244 25.4214 24.7976 25.131 25.088L25.1088 25.1088L25.088 25.131C24.7976 25.4214 24.6244 25.5933 24.4473 25.7535ZM8.7907 7.81395C8.53165 7.81395 8.28321 7.91686 8.10004 8.10004C7.91686 8.28321 7.81395 8.53165 7.81395 8.7907C7.81395 9.04975 7.91686 9.29818 8.10004 9.48136C8.28321 9.66453 8.53165 9.76744 8.7907 9.76744H19.2093C19.4684 9.76744 19.7168 9.66453 19.9 9.48136C20.0831 9.29818 20.186 9.04975 20.186 8.7907C20.186 8.53165 20.0831 8.28321 19.9 8.10004C19.7168 7.91686 19.4684 7.81395 19.2093 7.81395H8.7907ZM7.81395 14C7.81395 13.741 7.91686 13.4925 8.10004 13.3093C8.28321 13.1262 8.53165 13.0233 8.7907 13.0233H16.6047C16.8637 13.0233 17.1121 13.1262 17.2953 13.3093C17.4785 13.4925 17.5814 13.741 17.5814 14C17.5814 14.259 17.4785 14.5075 17.2953 14.6907C17.1121 14.8738 16.8637 14.9767 16.6047 14.9767H8.7907C8.53165 14.9767 8.28321 14.8738 8.10004 14.6907C7.91686 14.5075 7.81395 14.259 7.81395 14ZM8.7907 18.2326C8.53165 18.2326 8.28321 18.3355 8.10004 18.5186C7.91686 18.7018 7.81395 18.9503 7.81395 19.2093C7.81395 19.4684 7.91686 19.7168 8.10004 19.9C8.28321 20.0831 8.53165 20.186 8.7907 20.186H11.3953C11.6544 20.186 11.9028 20.0831 12.086 19.9C12.2692 19.7168 12.3721 19.4684 12.3721 19.2093C12.3721 18.9503 12.2692 18.7018 12.086 18.5186C11.9028 18.3355 11.6544 18.2326 11.3953 18.2326H8.7907Z" fill="white"/>
</svg>
