<svg width="28" height="28" viewBox="0 0 28 28" fill="none" xmlns="http://www.w3.org/2000/svg">
<path fill-rule="evenodd" clip-rule="evenodd" d="M0 5.2093C0 3.38588 0 2.47416 0.354858 1.7777C0.667012 1.16509 1.16509 0.667012 1.7777 0.354858C2.47416 0 3.38588 0 5.2093 0H7.16279C8.98622 0 9.89793 0 10.5944 0.354858C11.207 0.667012 11.705 1.16509 12.0172 1.7777C12.3721 2.47416 12.3721 3.38588 12.3721 5.2093V7.16279C12.3721 8.98622 12.3721 9.89793 12.0172 10.5944C11.705 11.207 11.207 11.705 10.5944 12.0172C9.89793 12.3721 8.98622 12.3721 7.16279 12.3721H5.2093C3.38588 12.3721 2.47416 12.3721 1.7777 12.0172C1.16509 11.705 0.667012 11.207 0.354858 10.5944C0 9.89793 0 8.98622 0 7.16279V5.2093ZM28 5.2093C28 3.38588 28 2.47416 27.6451 1.7777C27.333 1.16509 26.8349 0.667012 26.2223 0.354858C25.5258 0 24.6141 0 22.7907 0H20.8372C19.0138 0 18.1021 0 17.4056 0.354858C16.793 0.667012 16.295 1.16509 15.9828 1.7777C15.6279 2.47416 15.6279 3.38588 15.6279 5.2093V7.16279C15.6279 8.98622 15.6279 9.89793 15.9828 10.5944C16.295 11.207 16.793 11.705 17.4056 12.0172C18.1021 12.3721 19.0138 12.3721 20.8372 12.3721H22.7907C24.6141 12.3721 25.5258 12.3721 26.2223 12.0172C26.8349 11.705 27.333 11.207 27.6451 10.5944C28 9.89793 28 8.98622 28 7.16279V5.2093ZM0 20.8372C0 19.0138 0 18.1021 0.354858 17.4056C0.667012 16.793 1.16509 16.295 1.7777 15.9828C2.47416 15.6279 3.38588 15.6279 5.2093 15.6279H7.16279C8.98622 15.6279 9.89793 15.6279 10.5944 15.9828C11.207 16.295 11.705 16.793 12.0172 17.4056C12.3721 18.1021 12.3721 19.0138 12.3721 20.8372V22.7907C12.3721 24.6141 12.3721 25.5258 12.0172 26.2223C11.705 26.8349 11.207 27.333 10.5944 27.6451C9.89793 28 8.98622 28 7.16279 28H5.2093C3.38588 28 2.47416 28 1.7777 27.6451C1.16509 27.333 0.667012 26.8349 0.354858 26.2223C0 25.5258 0 24.6141 0 22.7907V20.8372ZM28 20.8372C28 19.0138 28 18.1021 27.6451 17.4056C27.333 16.793 26.8349 16.295 26.2223 15.9828C25.5258 15.6279 24.6141 15.6279 22.7907 15.6279H20.8372C19.0138 15.6279 18.1021 15.6279 17.4056 15.9828C16.793 16.295 16.295 16.793 15.9828 17.4056C15.6279 18.1021 15.6279 19.0138 15.6279 20.8372V22.7907C15.6279 24.6141 15.6279 25.5258 15.9828 26.2223C16.295 26.8349 16.793 27.333 17.4056 27.6451C18.1021 28 19.0138 28 20.8372 28H22.7907C24.6141 28 25.5258 28 26.2223 27.6451C26.8349 27.333 27.333 26.8349 27.6451 26.2223C28 25.5258 28 24.6141 28 22.7907V20.8372Z" fill="white"/>
</svg>
