<svg width="28" height="28" viewBox="0 0 28 28" fill="none" xmlns="http://www.w3.org/2000/svg">
<path fill-rule="evenodd" clip-rule="evenodd" d="M2.17619 19.4659L1.2906 19.8774L1.32056 19.9425C1.94307 21.2865 2.2986 22.0536 1.99777 23.1046C1.92367 23.3347 1.83224 23.5589 1.72428 23.7753C1.68651 23.8534 1.64614 23.9407 1.60447 24.0357C1.44037 24.3978 1.232 24.8913 1.18772 25.4422C1.1593 25.7876 1.21003 26.135 1.33605 26.4578C1.46208 26.7807 1.66007 27.0706 1.91498 27.3054C2.16989 27.5402 2.475 27.7138 2.80709 27.8129C3.13918 27.9121 3.48952 27.9342 3.83144 27.8776C4.65842 27.7395 5.36949 27.3736 5.89042 27.104C6.01805 27.0389 6.13526 26.9777 6.23944 26.9282C6.79293 26.6651 7.25526 26.5271 7.9494 26.6899C8.09265 26.7237 8.5693 26.893 9.73358 27.3085C11.0333 27.7734 12.419 28 14 28C21.7319 28 28 21.7319 28 14C28 6.26809 21.7319 0 14 0C6.26809 0 0 6.26809 0 14C0 16.0967 0.462326 18.0893 1.2893 19.8761L2.17619 19.4659ZM8.7907 10.4186C8.53165 10.4186 8.28321 10.5215 8.10004 10.7047C7.91686 10.8879 7.81395 11.1363 7.81395 11.3953C7.81395 11.6544 7.91686 11.9028 8.10004 12.086C8.28321 12.2692 8.53165 12.3721 8.7907 12.3721H19.2093C19.4684 12.3721 19.7168 12.2692 19.9 12.086C20.0831 11.9028 20.186 11.6544 20.186 11.3953C20.186 11.1363 20.0831 10.8879 19.9 10.7047C19.7168 10.5215 19.4684 10.4186 19.2093 10.4186H8.7907ZM7.81395 16.6047C7.81395 16.3456 7.91686 16.0972 8.10004 15.914C8.28321 15.7308 8.53165 15.6279 8.7907 15.6279H14C14.259 15.6279 14.5075 15.7308 14.6907 15.914C14.8738 16.0972 14.9767 16.3456 14.9767 16.6047C14.9767 16.8637 14.8738 17.1121 14.6907 17.2953C14.5075 17.4785 14.259 17.5814 14 17.5814H8.7907C8.53165 17.5814 8.28321 17.4785 8.10004 17.2953C7.91686 17.1121 7.81395 16.8637 7.81395 16.6047Z" fill="white"/>
</svg>
