<svg width="28" height="27" viewBox="0 0 28 27" fill="none" xmlns="http://www.w3.org/2000/svg">
<path fill-rule="evenodd" clip-rule="evenodd" d="M16.67 0.514259C14.9558 -0.17142 13.0436 -0.17142 11.3294 0.514259C10.0414 1.02944 9.01606 2.10607 7.96569 3.61161C6.92156 5.11465 5.75865 7.19038 4.25687 9.87509L4.22936 9.92261L4.2031 9.97137C2.75883 12.5498 1.63969 14.5468 0.930683 16.1661C0.21793 17.7917 -0.152202 19.1859 0.0591232 20.5251C0.341815 22.3144 1.28945 23.931 2.71257 25.0517C3.77795 25.8908 5.17594 26.2484 6.94157 26.421C8.70095 26.5935 10.9905 26.5935 13.9453 26.5935H14.0554C17.0114 26.5935 19.2997 26.5935 21.0578 26.421C22.826 26.2484 24.2227 25.8908 25.2893 25.0517C26.7115 23.9306 27.6582 22.314 27.9403 20.5251C28.1529 19.1859 27.7827 17.7917 27.07 16.1661C26.3597 14.5468 25.2418 12.5498 23.7976 9.97137L23.7713 9.92261L23.7438 9.87509C22.2408 7.19038 21.0791 5.11465 20.0325 3.61161C18.9846 2.10607 17.9592 1.02944 16.67 0.514259ZM14.9369 9.39992C14.9369 9.15119 14.8381 8.91265 14.6622 8.73677C14.4864 8.56089 14.2478 8.46209 13.9991 8.46209C13.7504 8.46209 13.5118 8.56089 13.3359 8.73677C13.1601 8.91265 13.0612 9.15119 13.0612 9.39992V14.4017C13.0612 14.6504 13.1601 14.889 13.3359 15.0648C13.5118 15.2407 13.7504 15.3395 13.9991 15.3395C14.2478 15.3395 14.4864 15.2407 14.6622 15.0648C14.8381 14.889 14.9369 14.6504 14.9369 14.4017V9.39992ZM15.2495 18.153C15.2495 18.4847 15.1178 18.8027 14.8833 19.0372C14.6488 19.2717 14.3307 19.4035 13.9991 19.4035C13.6674 19.4035 13.3494 19.2717 13.1149 19.0372C12.8804 18.8027 12.7486 18.4847 12.7486 18.153C12.7486 17.8214 12.8804 17.5033 13.1149 17.2688C13.3494 17.0343 13.6674 16.9026 13.9991 16.9026C14.3307 16.9026 14.6488 17.0343 14.8833 17.2688C15.1178 17.5033 15.2495 17.8214 15.2495 18.153Z" fill="white"/>
</svg>
