<svg width="25" height="23" viewBox="0 0 25 23" fill="none" xmlns="http://www.w3.org/2000/svg">
<path fill-rule="evenodd" clip-rule="evenodd" d="M3.17448 0.633686C4.41815 6.93077e-08 6.04621 0 9.30233 0H15.6977C18.9538 0 20.5819 6.93077e-08 21.8256 0.633686C22.9195 1.19108 23.809 2.08051 24.3663 3.17448C25 4.41815 25 6.04621 25 9.30233V13.3721C25 16.6283 25 18.2563 24.3663 19.5C23.809 20.594 22.9195 21.4834 21.8256 22.0407C20.5819 22.6744 18.9538 22.6744 15.6977 22.6744H9.30233C6.04621 22.6744 4.41815 22.6744 3.17448 22.0407C2.08051 21.4834 1.19108 20.594 0.633686 19.5C6.93077e-08 18.2563 0 16.6283 0 13.3721V9.30233C0 6.04621 6.93077e-08 4.41815 0.633686 3.17448C1.19108 2.08051 2.08051 1.19108 3.17448 0.633686ZM6.00701 5.96042C5.60626 5.69326 5.0648 5.80155 4.79763 6.20229C4.53046 6.60305 4.63876 7.1445 5.0395 7.41167L6.20229 8.18686L6.3376 8.27708C8.07981 9.43883 9.11658 10.1301 10.2357 10.4673C11.7124 10.9123 13.2876 10.9123 14.7643 10.4673C15.8834 10.1301 16.9202 9.43884 18.6623 8.27709L18.7977 8.18686L19.9605 7.41167C20.3613 7.1445 20.4695 6.60305 20.2023 6.20229C19.9352 5.80155 19.3937 5.69326 18.993 5.96042L17.8302 6.73562C15.9113 8.0149 15.1008 8.54432 14.261 8.79731C13.1126 9.14337 11.8874 9.14337 10.739 8.79731C9.89923 8.54432 9.08872 8.0149 7.1698 6.73562L6.00701 5.96042Z" fill="#5E54F8"/>
</svg>
