<svg width="89" height="87" viewBox="0 0 89 87" fill="none" xmlns="http://www.w3.org/2000/svg">
<g id="notice">
<g id="bg" filter="url(#filter0_d_153_12)">
<rect x="16" y="16" width="55" height="55" rx="15" fill="#14111F"/>
</g>
<g id="Mask group">
<mask id="mask0_153_12" style="mask-type:alpha" maskUnits="userSpaceOnUse" x="16" y="16" width="55" height="55">
<rect id="bg_2" x="16" y="16" width="55" height="55" rx="15" fill="#14111F"/>
</mask>
<g mask="url(#mask0_153_12)">
<g id="Vector" filter="url(#filter1_d_153_12)">
<path fill-rule="evenodd" clip-rule="evenodd" d="M47.8601 31.95L48.7615 32.7227C49.1382 33.0455 49.3266 33.207 49.539 33.322C49.7275 33.424 49.9295 33.4987 50.1389 33.5439C50.3751 33.5949 50.6232 33.5949 51.1193 33.5949H51.786C53.0542 33.5949 53.6884 33.5949 54.1728 33.8417C54.5988 34.0588 54.9453 34.4052 55.1624 34.8313C55.4092 35.3157 55.4091 35.9498 55.4091 37.2181V37.8847C55.4091 38.3808 55.4092 38.6289 55.4602 38.8651C55.5054 39.0746 55.5801 39.2766 55.6821 39.4651C55.7972 39.6776 55.9585 39.8659 56.2814 40.2426L57.0541 41.1441C57.7714 41.9809 58.1301 42.3994 58.2668 42.8687C58.3873 43.2823 58.3873 43.7217 58.2668 44.1353C58.1301 44.6045 57.7714 45.023 57.0541 45.8599L56.2814 46.7613C55.9585 47.138 55.7972 47.3264 55.6821 47.5388C55.5801 47.7273 55.5054 47.9293 55.4602 48.1388C55.4092 48.375 55.4091 48.623 55.4091 49.1192V49.7858C55.4091 51.054 55.4092 51.6882 55.1624 52.1726C54.9453 52.5986 54.5988 52.9451 54.1728 53.1621C53.6884 53.409 53.0542 53.409 51.786 53.409H51.1193C50.6232 53.409 50.3751 53.409 50.1391 53.46C49.9295 53.5052 49.7275 53.5799 49.539 53.682C49.3266 53.7969 49.1382 53.9583 48.7615 54.2812L47.8601 55.0539C47.0231 55.7713 46.6048 56.1298 46.1355 56.2666C45.7219 56.3871 45.2825 56.3871 44.8688 56.2666C44.3995 56.1298 43.9812 55.7713 43.1442 55.0539L42.2428 54.2812C41.8661 53.9583 41.6778 53.7969 41.4653 53.682C41.2768 53.5799 41.0748 53.5052 40.8653 53.46C40.6291 53.409 40.3811 53.409 39.8849 53.409H39.1795C37.9113 53.409 37.2772 53.409 36.7928 53.1621C36.3667 52.9451 36.0203 52.5986 35.8032 52.1726C35.5564 51.6882 35.5564 51.054 35.5564 49.7858V49.1048C35.5564 48.6128 35.5564 48.3669 35.5062 48.1325C35.4617 47.9247 35.3881 47.7241 35.2877 47.5368C35.1745 47.3255 35.0154 47.1379 34.6974 46.7625L33.9193 45.8443C33.2142 45.0121 32.8616 44.596 32.7271 44.1303C32.6085 43.7198 32.6085 43.2841 32.7271 42.8735C32.8616 42.4079 33.2142 41.9918 33.9193 41.1597L34.6974 40.2414C35.0154 39.8661 35.1745 39.6784 35.2877 39.4672C35.3881 39.2798 35.4617 39.0792 35.5062 38.8714C35.5564 38.637 35.5564 38.391 35.5564 37.8991V37.2181C35.5564 35.9498 35.5564 35.3157 35.8032 34.8313C36.0203 34.4052 36.3667 34.0588 36.7928 33.8417C37.2772 33.5949 37.9113 33.5949 39.1795 33.5949H39.8849C40.3811 33.5949 40.6291 33.5949 40.8653 33.5439C41.0748 33.4987 41.2768 33.424 41.4653 33.322C41.6778 33.207 41.8661 33.0456 42.2428 32.7227L43.1442 31.95C43.9812 31.2327 44.3995 30.874 44.8688 30.7373C45.2825 30.6169 45.7219 30.6169 46.1355 30.7373C46.6048 30.874 47.0231 31.2327 47.8601 31.95ZM46.3517 38.9725C46.3517 38.5035 45.9715 38.1233 45.5026 38.1233C45.0336 38.1233 44.6534 38.5035 44.6534 38.9725V44.6336C44.6534 45.1026 45.0336 45.4828 45.5026 45.4828C45.9715 45.4828 46.3517 45.1026 46.3517 44.6336V38.9725ZM45.5026 46.615C44.7209 46.615 44.0873 47.2487 44.0873 48.0303C44.0873 48.812 44.7209 49.4456 45.5026 49.4456C46.2841 49.4456 46.9178 48.812 46.9178 48.0303C46.9178 47.2487 46.2841 46.615 45.5026 46.615Z" fill="#5E54F8"/>
</g>
</g>
</g>
</g>
<defs>
<filter id="filter0_d_153_12" x="0" y="0" width="87" height="87" filterUnits="userSpaceOnUse" color-interpolation-filters="sRGB">
<feFlood flood-opacity="0" result="BackgroundImageFix"/>
<feColorMatrix in="SourceAlpha" type="matrix" values="0 0 0 0 0 0 0 0 0 0 0 0 0 0 0 0 0 0 127 0" result="hardAlpha"/>
<feOffset/>
<feGaussianBlur stdDeviation="8"/>
<feComposite in2="hardAlpha" operator="out"/>
<feColorMatrix type="matrix" values="0 0 0 0 0 0 0 0 0 0 0 0 0 0 0 0 0 0 0.25 0"/>
<feBlend mode="normal" in2="BackgroundImageFix" result="effect1_dropShadow_153_12"/>
<feBlend mode="normal" in="SourceGraphic" in2="effect1_dropShadow_153_12" result="shape"/>
</filter>
<filter id="filter1_d_153_12" x="2.63818" y="0.646973" width="85.719" height="85.71" filterUnits="userSpaceOnUse" color-interpolation-filters="sRGB">
<feFlood flood-opacity="0" result="BackgroundImageFix"/>
<feColorMatrix in="SourceAlpha" type="matrix" values="0 0 0 0 0 0 0 0 0 0 0 0 0 0 0 0 0 0 127 0" result="hardAlpha"/>
<feOffset/>
<feGaussianBlur stdDeviation="15"/>
<feComposite in2="hardAlpha" operator="out"/>
<feColorMatrix type="matrix" values="0 0 0 0 0.368627 0 0 0 0 0.329412 0 0 0 0 0.972549 0 0 0 0.4 0"/>
<feBlend mode="normal" in2="BackgroundImageFix" result="effect1_dropShadow_153_12"/>
<feBlend mode="normal" in="SourceGraphic" in2="effect1_dropShadow_153_12" result="shape"/>
</filter>
</defs>
</svg>
