<svg width="28" height="28" viewBox="0 0 28 28" fill="none" xmlns="http://www.w3.org/2000/svg">
<path fill-rule="evenodd" clip-rule="evenodd" d="M15.0471 0.108871C14.3572 -0.0362904 13.6428 -0.0362904 12.9529 0.108871C12.1702 0.273671 11.4553 0.685671 10.4199 1.2812L10.2819 1.3611L3.50977 5.25637L3.37953 5.33128C2.39758 5.89434 1.72037 6.28387 1.21637 6.8332C1.06532 6.99763 0.926503 7.17201 0.80093 7.35507L6.55721 10.6161L20.0884 2.7232L17.7194 1.36235L17.5814 1.28245C16.546 0.686919 15.8311 0.27492 15.0484 0.108871H15.0471ZM8.46512 11.696L14 14.8335L27.1991 7.35507C27.0735 7.17199 26.9347 6.99761 26.7836 6.8332C26.2796 6.28387 25.6024 5.89434 24.6218 5.33128L24.4915 5.25637L21.978 3.81063L8.46512 11.696ZM27.9167 9.12417L14.9767 16.4528V28C15.0002 27.9952 15.0237 27.9902 15.0471 27.985C15.8298 27.8202 16.5447 27.4082 17.5801 26.8127L17.7181 26.7328L24.4902 22.8375L24.6218 22.7626C25.6024 22.1995 26.2796 21.81 26.7836 21.2607C27.2283 20.7757 27.5635 20.2078 27.7682 19.5927C28.0013 18.8961 28 18.1382 28 17.0421V11.0506C28 10.2703 28 9.66102 27.9167 9.12417ZM13.0233 28V16.454L0.0833489 9.12417C9.70308e-09 9.66102 0 10.2703 0 11.0506V17.0433C0 18.1395 -3.88123e-08 18.8973 0.231814 19.594C0.436279 20.2095 0.772279 20.7763 1.21637 21.2619C1.72037 21.8113 2.39758 22.2008 3.37823 22.7639L3.50847 22.8388L10.2806 26.734L10.4199 26.8139C11.4553 27.4095 12.1702 27.8215 12.9529 27.9875L13.0233 28Z" fill="white"/>
</svg>
