<svg width="22" height="22" viewBox="0 0 22 22" fill="none" xmlns="http://www.w3.org/2000/svg">
<path d="M18.7429 3.23468C16.502 0.993836 13.3264 -0.298428 9.83449 0.0590068C4.78916 0.567664 0.637421 4.66442 0.0737744 9.70975C-0.682338 16.3773 4.47297 22 10.9755 22C15.361 22 19.1278 19.4292 20.8875 15.7311C21.3274 14.8101 20.6675 13.7515 19.6502 13.7515C19.1415 13.7515 18.6604 14.0265 18.4404 14.4801C16.887 17.8208 13.1614 19.9379 9.09213 19.0305C6.04018 18.3569 3.57938 15.8686 2.93325 12.8167C1.77846 7.48265 5.83397 2.75351 10.9755 2.75351C13.2576 2.75351 15.2922 3.70209 16.777 5.20057L14.7011 7.27644C13.835 8.14253 14.4399 9.62726 15.6634 9.62726H20.5988C21.3549 9.62726 21.9735 9.00862 21.9735 8.25251V3.31716C21.9735 2.09364 20.4888 1.475 19.6227 2.34109L18.7429 3.23468Z" fill="white"/>
</svg>
