<svg width="22" height="22" viewBox="0 0 22 22" fill="none" xmlns="http://www.w3.org/2000/svg">
<path d="M18.8753 12.078C18.9193 11.726 18.9523 11.374 18.9523 11C18.9523 10.626 18.9193 10.274 18.8753 9.922L21.1963 8.107C21.4053 7.942 21.4603 7.645 21.3283 7.403L19.1283 3.597C19.0293 3.421 18.8423 3.322 18.6443 3.322C18.5783 3.322 18.5123 3.333 18.4573 3.355L15.7183 4.455C15.1463 4.015 14.5303 3.652 13.8593 3.377L13.4413 0.462C13.4083 0.198 13.1773 0 12.9023 0H8.50226C8.22726 0 7.99626 0.198 7.96326 0.462L7.54526 3.377C6.87426 3.652 6.25827 4.026 5.68626 4.455L2.94726 3.355C2.88126 3.333 2.81526 3.322 2.74926 3.322C2.56226 3.322 2.37527 3.421 2.27627 3.597L0.0762647 7.403C-0.0667353 7.645 -0.000735132 7.942 0.208265 8.107L2.52927 9.922C2.48527 10.274 2.45227 10.637 2.45227 11C2.45227 11.363 2.48527 11.726 2.52927 12.078L0.208265 13.893C-0.000735132 14.058 -0.0557353 14.355 0.0762647 14.597L2.27627 18.403C2.37527 18.579 2.56227 18.678 2.76027 18.678C2.82627 18.678 2.89226 18.667 2.94726 18.645L5.68626 17.545C6.25827 17.985 6.87426 18.348 7.54526 18.623L7.96326 21.538C7.99626 21.802 8.22726 22 8.50226 22H12.9023C13.1773 22 13.4083 21.802 13.4413 21.538L13.8593 18.623C14.5303 18.348 15.1463 17.974 15.7183 17.545L18.4573 18.645C18.5233 18.667 18.5893 18.678 18.6553 18.678C18.8423 18.678 19.0293 18.579 19.1283 18.403L21.3283 14.597C21.4603 14.355 21.4053 14.058 21.1963 13.893L18.8753 12.078ZM16.6973 10.197C16.7413 10.538 16.7523 10.769 16.7523 11C16.7523 11.231 16.7303 11.473 16.6973 11.803L16.5433 13.046L17.5223 13.816L18.7103 14.74L17.9403 16.071L16.5433 15.51L15.3993 15.048L14.4093 15.796C13.9363 16.148 13.4853 16.412 13.0343 16.599L11.8683 17.072L11.6923 18.315L11.4723 19.8H9.93227L9.72326 18.315L9.54727 17.072L8.38127 16.599C7.90827 16.401 7.46826 16.148 7.02826 15.818L6.02726 15.048L4.86126 15.521L3.46427 16.082L2.69426 14.751L3.88227 13.827L4.86126 13.057L4.70726 11.814C4.67426 11.473 4.65226 11.22 4.65226 11C4.65226 10.78 4.67426 10.527 4.70726 10.197L4.86126 8.954L3.88227 8.184L2.69426 7.26L3.46427 5.929L4.86126 6.49L6.00526 6.952L6.99527 6.204C7.46827 5.852 7.91926 5.588 8.37027 5.401L9.53627 4.928L9.71227 3.685L9.93227 2.2H11.4613L11.6703 3.685L11.8463 4.928L13.0123 5.401C13.4853 5.599 13.9253 5.852 14.3653 6.182L15.3663 6.952L16.5323 6.479L17.9293 5.918L18.6993 7.249L17.5223 8.184L16.5433 8.954L16.6973 10.197ZM10.7023 6.6C8.27127 6.6 6.30226 8.569 6.30226 11C6.30226 13.431 8.27127 15.4 10.7023 15.4C13.1333 15.4 15.1023 13.431 15.1023 11C15.1023 8.569 13.1333 6.6 10.7023 6.6ZM10.7023 13.2C9.49227 13.2 8.50226 12.21 8.50226 11C8.50226 9.79 9.49227 8.8 10.7023 8.8C11.9123 8.8 12.9023 9.79 12.9023 11C12.9023 12.21 11.9123 13.2 10.7023 13.2Z" fill="white"/>
</svg>
