<svg width="28" height="28" viewBox="0 0 28 28" fill="none" xmlns="http://www.w3.org/2000/svg">
<path fill-rule="evenodd" clip-rule="evenodd" d="M8.30938 0.311647C9.55637 1.94062e-08 11.0376 0 14 0C16.9624 0 18.4436 1.94062e-08 19.6907 0.311647C22.7109 1.06647 25.1622 3.11927 26.2876 5.83599C26.7521 6.95765 26.9087 8.32909 27.2217 11.072L27.5523 13.9697C27.9672 17.6056 28.1746 19.4235 27.8161 20.8976C27.0647 23.9861 24.6458 26.4903 21.4267 27.5123C19.8903 28 17.9269 28 14 28C10.0731 28 8.10966 28 6.57325 27.5123C3.35415 26.4903 0.935263 23.9861 0.18394 20.8976C-0.174643 19.4235 0.032797 17.6056 0.447692 13.9697L0.778372 11.072C1.09136 8.32909 1.24786 6.95765 1.71245 5.83599C2.8377 3.11927 5.28905 1.06647 8.30938 0.311647ZM10.8532 10.0931C10.8532 11.7114 12.2622 13.0233 14.0002 13.0233C15.7384 13.0233 17.1473 11.7114 17.1473 10.0931V7.48841C17.1473 6.94896 17.617 6.51167 18.1963 6.51167C18.7757 6.51167 19.2453 6.94896 19.2453 7.48841V10.0931C19.2453 12.7903 16.8971 14.9767 14.0002 14.9767C11.1035 14.9767 8.75514 12.7903 8.75514 10.0931V7.48841C8.75514 6.94896 9.22481 6.51167 9.80416 6.51167C10.3835 6.51167 10.8532 6.94896 10.8532 7.48841V10.0931Z" fill="white"/>
</svg>
