<svg width="22" height="22" viewBox="0 0 22 22" fill="none" xmlns="http://www.w3.org/2000/svg">
<g id="star.4 5" clip-path="url(#clip0_142_377)">
<path id="Vector" d="M14.2654 4.07663C13.2286 2.00311 12.7102 0.966351 12.0323 0.624336C11.3832 0.296873 10.6171 0.296873 9.96794 0.624334C9.28998 0.966342 8.77162 2.00311 7.73486 4.07664C7.45352 4.63931 7.31285 4.92064 7.12109 5.14062C6.87397 5.42409 6.5609 5.6424 6.20948 5.77628C5.93676 5.88017 5.62985 5.91427 5.016 5.98248C2.87823 6.22001 1.80935 6.33877 1.28249 6.77373C0.602619 7.335 0.305006 8.23653 0.517086 9.09225C0.681439 9.75544 1.48146 10.4983 3.08152 11.984C3.57996 12.4469 3.82918 12.6783 3.99206 12.9418C4.24416 13.3495 4.36204 13.8261 4.3291 14.3043C4.30781 14.6133 4.19687 14.9296 3.97499 15.5619C3.25384 17.6171 2.89327 18.6448 3.02917 19.2762C3.24098 20.2604 4.0702 20.991 5.07315 21.0773C5.71668 21.1327 6.69076 20.6456 8.63892 19.6715L9.36038 19.3108C9.96162 19.0102 10.2622 18.8599 10.5775 18.8007C10.8568 18.7483 11.1435 18.7483 11.4227 18.8007C11.738 18.8599 12.0387 19.0102 12.6399 19.3108L13.3614 19.6715C15.3095 20.6456 16.2836 21.1327 16.9271 21.0773C17.93 20.991 18.7593 20.2604 18.9711 19.2762C19.107 18.6448 18.7464 17.6171 18.0253 15.5619C17.8034 14.9296 17.6924 14.6133 17.6712 14.3043C17.6382 13.8261 17.7561 13.3495 18.0082 12.9418C18.1711 12.6783 18.4203 12.4469 18.9187 11.984C20.5188 10.4983 21.3188 9.75544 21.4832 9.09225C21.6952 8.23653 21.3977 7.335 20.7178 6.77373C20.1909 6.33877 19.1221 6.22001 16.9843 5.98248C16.3704 5.91427 16.0635 5.88017 15.7908 5.77628C15.4393 5.6424 15.1263 5.42409 14.8792 5.14062C14.6874 4.92064 14.5468 4.63931 14.2654 4.07663Z" fill="#5E54F8"/>
</g>
<defs>
<clipPath id="clip0_142_377">
<rect width="22" height="22" fill="white"/>
</clipPath>
</defs>
</svg>
