<svg width="22" height="22" viewBox="0 0 22 22" fill="none" xmlns="http://www.w3.org/2000/svg">
<g id="star.1 2">
<path id="Vector" d="M8.37647 4.33064C9.22096 2.64174 9.64318 1.7973 10.2145 1.52632C10.7117 1.2905 11.2885 1.2905 11.7858 1.52632C12.3572 1.7973 12.7794 2.64175 13.6238 4.33064L13.9532 4.98932C14.2139 5.51079 14.3442 5.77152 14.535 5.97116C14.7037 6.14786 14.9062 6.28904 15.1304 6.38636C15.3836 6.49631 15.6734 6.52851 16.2528 6.59289L16.5518 6.62611C18.576 6.85103 19.5881 6.96348 20.0455 7.43014C20.443 7.83568 20.6302 8.40252 20.5522 8.96501C20.4626 9.61226 19.7163 10.3052 18.2239 11.6911L17.9082 11.9841C17.3988 12.4572 17.1441 12.6937 16.9969 12.9804C16.8668 13.2337 16.7975 13.5139 16.7945 13.7987C16.7911 14.1209 16.9077 14.4532 17.1409 15.1178C17.9021 17.2871 18.2827 18.3718 18.0337 19.006C17.8177 19.5561 17.3499 19.9683 16.777 20.1133C16.1166 20.2804 15.1038 19.7741 13.0782 18.7612L12.312 18.3782C11.831 18.1376 11.5905 18.0174 11.3382 17.9701C11.1148 17.9282 10.8854 17.9282 10.6621 17.9701C10.4098 18.0174 10.1693 18.1376 9.68828 18.3782L8.92203 18.7612C6.89643 19.7741 5.88363 20.2804 5.2232 20.1133C4.65035 19.9683 4.18251 19.5561 3.96656 19.006C3.7176 18.3718 4.09819 17.2871 4.85938 15.1178C5.09258 14.4532 5.20918 14.1209 5.20579 13.7987C5.2028 13.5139 5.1335 13.2337 5.00339 12.9804C4.85617 12.6937 4.60146 12.4572 4.09201 11.9841L3.77636 11.6911C2.28391 10.3052 1.53768 9.61226 1.44802 8.96501C1.3701 8.40252 1.55723 7.83568 1.95472 7.43014C2.41212 6.96348 3.42422 6.85103 5.44842 6.62611L5.7474 6.59289C6.32685 6.52851 6.61657 6.49631 6.86983 6.38636C7.09401 6.28904 7.29646 6.14786 7.4653 5.97116C7.65602 5.77152 7.78639 5.5108 8.04712 4.98933L8.37647 4.33064Z" stroke="#5E54F8" stroke-width="1.5" stroke-linecap="round" stroke-linejoin="round"/>
</g>
</svg>
