<svg width="36" height="30" viewBox="0 0 36 30" fill="none" xmlns="http://www.w3.org/2000/svg">
<g id="logo 1" clip-path="url(#clip0_309_94)">
<g id="Group">
<path id="Vector" d="M0.117554 7.83024V15.4531L1.21401 16.7503C1.81662 17.467 2.75141 18.5775 3.29523 19.2202C3.83611 19.8628 4.73561 20.929 5.29119 21.5894C6.49054 23.0138 11.0704 28.4452 11.7377 29.236L12.2051 29.7927H18.0225C21.2236 29.7927 23.8399 29.7838 23.8399 29.775C23.8399 29.7661 23.0638 28.7917 22.1143 27.6071C21.1649 26.4225 19.3629 24.1748 18.1077 22.6111C16.8525 21.0474 14.736 18.4087 13.4044 16.7473C12.0728 15.0859 10.8499 13.5607 10.6853 13.3564C10.5207 13.1521 9.99744 12.5005 9.52123 11.9053C8.52472 10.6644 6.00551 7.52224 2.95424 3.71671C0.0646415 0.112566 0.14107 0.207335 0.129312 0.207335C0.123433 0.207335 0.117554 3.63675 0.117554 7.83024Z" fill="white"/>
<path id="Vector_2" d="M33.0231 3.66336C31.662 5.35437 28.1728 9.69001 25.2685 13.2971L19.989 19.8568L20.1272 19.8746C20.2065 19.8835 20.7592 19.9013 21.3559 19.9131C22.3201 19.9309 26.3767 20.0197 30.2628 20.1086L31.6121 20.1382L31.6767 20.073C31.712 20.0345 32.588 18.921 33.6257 17.5972L35.5099 15.1925L35.504 7.88942L35.4952 0.589319L33.0231 3.66336Z" fill="white"/>
</g>
</g>
<defs>
<clipPath id="clip0_309_94">
<rect width="35.8333" height="30" fill="white"/>
</clipPath>
</defs>
</svg>
