<svg width="22" height="18" viewBox="0 0 22 18" fill="none" xmlns="http://www.w3.org/2000/svg">
<path id="icon" fill-rule="evenodd" clip-rule="evenodd" d="M0 8.75C0 6.75 2.75 0 10.75 0C18.75 0 21.5 6.75 21.5 8.75C21.5 10.75 18.75 17.5 10.75 17.5C2.75 17.5 0 10.75 0 8.75ZM8.5 8.75C8.5 7.5074 9.5074 6.5 10.75 6.5C11.9926 6.5 13 7.5074 13 8.75C13 9.9926 11.9926 11 10.75 11C9.5074 11 8.5 9.9926 8.5 8.75ZM10.75 5C8.67893 5 7 6.67893 7 8.75C7 10.8211 8.67893 12.5 10.75 12.5C12.8211 12.5 14.5 10.8211 14.5 8.75C14.5 6.67893 12.8211 5 10.75 5Z" fill="white"/>
</svg>
