<svg xmlns="http://www.w3.org/2000/svg" width="22" height="22" viewBox="0 0 22 22" fill="none">
  <path fill-rule="evenodd" clip-rule="evenodd" d="M10.0834 2.52084C8.89663 2.52098 7.72657 2.8004 6.66782 3.33652C5.60908 3.87264 4.69136 4.6504 3.9889 5.60691C3.28643 6.56342 2.81893 7.67182 2.62421 8.84249C2.42949 10.0132 2.51301 11.2132 2.86802 12.3456C3.22302 13.478 3.83955 14.511 4.66774 15.361C5.49593 16.2109 6.51254 16.8541 7.63534 17.2384C8.75814 17.6227 9.95563 17.7373 11.131 17.5731C12.3063 17.4088 13.4264 16.9702 14.4009 16.2928L14.4174 16.2818C14.652 16.1178 14.8519 15.9793 15.0169 15.8776C15.1773 15.7786 15.3762 15.6686 15.6008 15.6255C15.917 15.565 16.1801 15.5879 16.4808 15.7034C16.6825 15.7813 16.8456 15.906 16.9804 16.0243C17.1096 16.1379 17.2581 16.2864 17.4259 16.4533L17.4405 16.4679L19.7359 18.7642C19.8034 18.8271 19.8576 18.903 19.8952 18.9874C19.9328 19.0717 19.953 19.1627 19.9546 19.255C19.9562 19.3473 19.9392 19.439 19.9047 19.5246C19.8701 19.6102 19.8186 19.688 19.7533 19.7533C19.688 19.8186 19.6103 19.87 19.5247 19.9046C19.4391 19.9392 19.3474 19.9562 19.2551 19.9546C19.1628 19.9529 19.0717 19.9327 18.9874 19.8951C18.903 19.8576 18.8271 19.8034 18.7642 19.7358L16.468 17.4405C16.2819 17.2535 16.1655 17.138 16.0738 17.0583C16.0446 17.0314 16.0133 17.0069 15.9803 16.9849C15.9623 16.9782 15.944 16.9727 15.9253 16.9684H15.9125C15.8992 16.9696 15.8861 16.9714 15.873 16.9739C15.8648 16.9776 15.8254 16.9941 15.7374 17.0482C15.61 17.127 15.4422 17.2434 15.1874 17.4213C13.6903 18.4652 11.9085 19.0237 10.0834 19.0208C5.14712 19.0208 1.14587 15.0196 1.14587 10.0833C1.14587 5.14709 5.14712 1.14584 10.0834 1.14584C15.0196 1.14584 19.0209 5.14709 19.0209 10.0833C19.0223 11.2773 18.7838 12.4593 18.3196 13.5593C18.2486 13.7273 18.1138 13.8602 17.9448 13.9288C17.7758 13.9974 17.5865 13.9961 17.4185 13.9251C17.2505 13.8541 17.1176 13.7193 17.049 13.5503C16.9805 13.3813 16.9818 13.192 17.0528 13.024C17.5381 11.8741 17.7313 10.622 17.6151 9.3793C17.4989 8.13661 17.077 6.942 16.3869 5.90201C15.6968 4.86203 14.76 4.00901 13.6602 3.41904C12.5603 2.82908 11.3315 2.5205 10.0834 2.52084Z" fill="white"/>
</svg>